<?xml version="1.0" standalone="no"?>
<!DOCTYPE svg PUBLIC "-//W3C//DTD SVG 20010904//EN"
 "http://www.w3.org/TR/2001/REC-SVG-20010904/DTD/svg10.dtd">
<svg version="1.0" xmlns="http://www.w3.org/2000/svg"
 width="1024.000000pt" height="1024.000000pt" viewBox="0 0 1024.000000 1024.000000"
 preserveAspectRatio="xMidYMid meet">
<metadata>
Created by potrace 1.13, written by Peter Selinger 2001-2015
</metadata>
<g transform="translate(0.000000,1024.000000) scale(0.100000,-0.100000)"
fill="#000000" stroke="none">
<path d="M1610 10210 c-8 -5 -41 -10 -72 -10 -31 0 -60 -4 -63 -10 -3 -5 -24
-10 -45 -10 -21 0 -42 -4 -45 -10 -3 -5 -21 -10 -40 -10 -19 0 -37 -4 -40 -10
-3 -5 -19 -10 -36 -10 -16 0 -29 -4 -29 -8 0 -4 -21 -14 -47 -21 -50 -15 -52
-16 -121 -50 -24 -11 -50 -21 -58 -21 -8 0 -14 -4 -14 -10 0 -5 -9 -10 -19
-10 -11 0 -21 -3 -23 -7 -4 -10 -57 -42 -80 -50 -10 -3 -18 -9 -18 -14 0 -5
-6 -9 -12 -9 -7 0 -29 -14 -48 -30 -19 -16 -39 -30 -43 -30 -4 0 -19 -11 -33
-25 -14 -14 -29 -25 -35 -25 -12 0 -289 -277 -289 -290 0 -6 -14 -24 -30 -42
-17 -17 -30 -37 -30 -44 0 -8 -4 -14 -8 -14 -5 0 -15 -12 -23 -27 -8 -16 -16
-30 -19 -33 -10 -10 -41 -65 -47 -82 -3 -10 -9 -18 -14 -18 -5 0 -9 -9 -9 -20
0 -11 -4 -20 -10 -20 -5 0 -10 -6 -10 -14 0 -12 -14 -44 -51 -118 -5 -10 -9
-25 -9 -33 0 -8 -4 -15 -10 -15 -5 0 -10 -13 -10 -30 0 -16 -4 -30 -10 -30 -5
0 -10 -13 -10 -29 0 -17 -4 -33 -10 -36 -5 -3 -10 -21 -10 -40 0 -19 -4 -37
-10 -40 -5 -3 -10 -23 -10 -44 0 -20 -4 -41 -9 -46 -19 -20 -23 -161 -27 -947
l-4 -808 5100 0 5100 0 -4 808 c-4 786 -8 927 -27 947 -5 5 -9 28 -9 52 0 24
-4 43 -10 43 -5 0 -10 15 -10 34 0 19 -4 38 -10 41 -5 3 -10 19 -10 36 0 16
-4 29 -10 29 -5 0 -10 14 -10 30 0 17 -4 30 -10 30 -5 0 -10 7 -10 15 0 8 -4
23 -9 33 -37 74 -51 106 -51 118 0 8 -4 14 -10 14 -5 0 -10 9 -10 20 0 11 -4
20 -9 20 -5 0 -11 8 -14 18 -6 17 -37 72 -47 82 -3 3 -11 17 -19 33 -8 15 -18
27 -23 27 -4 0 -8 6 -8 14 0 7 -13 27 -30 44 -16 18 -30 36 -30 42 0 13 -277
290 -289 290 -6 0 -21 11 -35 25 -14 14 -29 25 -33 25 -4 0 -24 14 -43 30 -19
16 -40 30 -47 30 -6 0 -13 3 -15 8 -4 9 -57 41 -80 49 -10 3 -18 9 -18 14 0 5
-9 9 -20 9 -11 0 -20 5 -20 10 0 6 -6 10 -14 10 -8 0 -34 10 -58 21 -69 34
-71 35 -120 50 -27 7 -48 17 -48 21 0 4 -13 8 -29 8 -17 0 -33 5 -36 10 -3 6
-21 10 -40 10 -19 0 -37 5 -40 10 -3 5 -23 10 -44 10 -20 0 -41 4 -47 9 -5 5
-38 12 -74 16 -105 12 -7063 16 -7080 5z"/>
<path d="M5780 5851 c-22 -6 -27 -16 -42 -91 -10 -47 -22 -146 -28 -220 -15
-190 -6 -351 46 -774 30 -252 54 -487 54 -541 l0 -41 -62 8 c-122 15 -261 -12
-298 -59 -26 -33 -26 -98 0 -140 23 -38 33 -40 215 -47 192 -7 179 4 194 -168
6 -78 18 -253 27 -388 16 -249 23 -310 37 -311 4 0 25 2 47 6 25 4 46 3 54 -4
9 -8 23 -5 51 9 21 11 61 23 88 26 l49 7 -6 76 c-7 67 -27 753 -23 758 8 8
220 24 258 19 31 -4 49 -3 49 3 0 16 50 38 102 46 94 14 99 42 20 100 -23 16
-69 63 -104 103 -75 87 -146 128 -203 118 -37 -7 -42 -17 -47 -91 -4 -48 -26
-57 -59 -24 -17 17 -20 29 -16 66 2 24 12 52 21 62 19 21 21 94 6 251 -44 466
-53 785 -25 910 8 36 14 89 15 118 0 50 -3 55 -45 97 -93 90 -270 145 -375
116z"/>
<path d="M2084 5223 c-16 -3 -33 -32 -73 -124 -151 -347 -234 -659 -257 -961
-4 -48 -11 -85 -15 -82 -16 9 -116 189 -226 404 -122 239 -192 364 -222 396
-25 27 -114 39 -208 29 -72 -8 -250 -48 -261 -60 -14 -13 -8 -1012 6 -1130 26
-213 79 -440 106 -457 19 -13 168 -9 221 6 58 15 126 48 173 83 28 21 32 30
32 71 0 26 -9 106 -20 177 -11 72 -23 159 -26 195 l-6 65 21 -25 c11 -14 46
-70 77 -125 100 -176 217 -358 259 -402 39 -41 44 -43 98 -43 32 0 99 9 150
21 50 11 120 22 154 22 70 2 71 3 97 104 26 102 36 211 46 523 9 295 29 480
51 480 5 0 9 -7 9 -16 0 -27 48 -235 91 -392 22 -81 94 -310 161 -509 l120
-363 38 0 c64 0 192 20 238 36 23 9 47 25 53 36 8 15 17 18 39 13 l28 -6 -9
43 c-6 23 -30 94 -55 158 -36 91 -47 132 -51 195 -3 50 -21 135 -48 230 -24
83 -64 256 -90 385 -89 451 -181 784 -259 939 l-35 68 -113 11 c-110 12 -250
14 -294 5z"/>
<path d="M4805 5161 c-32 -13 -203 -198 -268 -288 -66 -93 -145 -238 -182
-338 -33 -87 -71 -243 -80 -328 -5 -44 -13 -71 -26 -82 -26 -24 -32 -64 -18
-121 7 -27 13 -121 13 -210 l1 -160 50 -84 c69 -115 199 -247 285 -288 267
-129 757 -112 928 32 39 33 40 46 7 102 -26 45 -84 80 -141 86 -26 2 -41 -6
-79 -41 -84 -78 -235 -131 -334 -117 -177 24 -322 211 -323 416 -1 89 14 135
40 125 101 -39 345 -50 467 -21 39 9 75 20 81 24 8 5 8 32 2 92 -13 111 5 340
33 440 11 41 25 129 29 195 5 66 13 149 19 185 6 36 11 95 11 132 l0 66 -47
41 c-65 55 -144 96 -233 120 -88 23 -206 34 -235 22z m92 -801 c-3 -122 -10
-233 -17 -256 -12 -42 -12 -42 -53 -37 -99 10 -127 15 -131 22 -7 11 29 168
59 257 15 44 50 128 78 188 51 108 51 109 60 75 5 -19 7 -131 4 -249z"/>
<path d="M3425 4972 c-185 -139 -255 -212 -305 -316 -81 -170 -123 -422 -124
-741 -1 -371 32 -476 184 -578 41 -28 97 -70 124 -94 28 -25 67 -54 89 -64
155 -80 426 -82 682 -7 108 31 256 91 252 102 -2 5 -32 29 -66 53 -126 86
-239 94 -391 28 -113 -48 -164 -54 -224 -25 -141 68 -232 342 -185 560 13 59
4 58 188 34 119 -15 401 -17 416 -3 3 4 14 51 25 105 39 194 36 517 -6 719
-22 107 -52 201 -72 224 -28 33 -183 72 -422 105 -19 3 -58 -21 -165 -102z
m224 -409 c20 -104 24 -207 11 -296 -14 -98 -7 -93 -108 -76 l-65 12 7 59 c3
32 17 91 30 131 29 85 95 227 106 227 4 0 12 -26 19 -57z"/>
<path d="M8705 5040 c-27 -11 -72 -38 -100 -61 -27 -22 -75 -58 -106 -79 -234
-162 -364 -496 -441 -1136 -22 -176 -24 -187 -46 -195 -13 -5 -34 -9 -48 -9
-39 0 -74 -42 -74 -87 0 -34 7 -46 65 -102 42 -42 68 -76 75 -100 5 -20 10
-99 10 -176 0 -191 21 -339 91 -651 l32 -142 36 -6 c20 -3 108 -3 197 1 l161
6 -18 47 c-22 58 -62 219 -81 320 -14 83 -19 509 -5 572 7 33 12 38 45 43 109
19 255 88 370 177 149 115 353 323 430 438 84 125 126 309 126 550 1 142 -3
176 -22 244 -41 142 -93 206 -184 225 -28 7 -90 29 -137 50 -127 57 -234 91
-283 90 -24 0 -65 -9 -93 -19z m250 -352 c95 -320 -27 -696 -299 -920 -60 -50
-186 -131 -193 -125 -4 4 43 222 77 357 59 233 136 426 220 551 44 65 156 189
171 189 5 0 15 -24 24 -52z"/>
<path d="M6748 4523 c-12 -3 -24 -25 -34 -61 -14 -47 -16 -84 -10 -212 21
-508 120 -923 242 -1019 90 -71 352 -67 526 8 31 13 46 25 43 34 -3 7 6 24 20
37 14 13 25 29 25 36 0 7 9 15 19 19 55 17 176 191 219 313 6 17 17 32 25 32
8 0 31 15 51 34 32 31 40 48 65 149 39 149 55 274 48 367 -8 103 -11 108 -60
112 -37 3 -44 7 -56 36 -10 21 -24 35 -40 39 -14 3 -59 19 -99 34 -167 66
-217 19 -186 -176 51 -314 -60 -678 -261 -864 l-48 -44 -9 24 c-27 71 -48 323
-64 766 l-7 183 -71 44 c-108 67 -166 93 -231 105 -60 11 -77 12 -107 4z"/>
<path d="M80 1331 c0 -11 5 -23 10 -26 6 -3 10 -19 10 -36 0 -16 5 -29 10 -29
6 0 10 -13 10 -30 0 -16 5 -30 10 -30 6 0 10 -7 10 -15 0 -8 4 -23 9 -33 37
-74 51 -106 51 -118 0 -8 5 -14 10 -14 6 0 10 -9 10 -20 0 -11 5 -20 10 -20 6
0 10 -7 10 -15 0 -9 9 -25 20 -37 11 -12 20 -28 20 -35 0 -7 5 -13 10 -13 6 0
10 -6 10 -13 0 -7 9 -23 20 -35 11 -12 20 -25 20 -30 0 -5 13 -23 30 -40 16
-18 30 -36 30 -42 0 -13 287 -300 300 -300 6 0 24 -14 42 -30 17 -17 37 -30
44 -30 8 0 14 -4 14 -8 0 -5 12 -15 28 -23 15 -8 29 -16 32 -19 10 -10 65 -41
83 -47 9 -3 17 -9 17 -14 0 -5 9 -9 20 -9 11 0 20 -4 20 -10 0 -5 6 -10 14
-10 8 0 34 -10 58 -21 69 -34 71 -35 121 -50 26 -7 47 -17 47 -21 0 -4 13 -8
29 -8 17 0 33 -5 36 -10 3 -6 22 -10 41 -10 19 0 34 -4 34 -10 0 -5 19 -10 43
-10 24 0 47 -4 53 -9 5 -5 38 -12 74 -16 85 -9 7055 -9 7140 0 36 4 69 11 74
16 6 5 29 9 53 9 24 0 43 5 43 10 0 6 15 10 34 10 19 0 38 5 41 10 3 6 19 10
36 10 16 0 29 4 29 8 0 4 21 14 48 21 49 15 51 16 120 50 24 11 50 21 58 21 8
0 14 5 14 10 0 6 9 10 20 10 11 0 20 4 20 9 0 5 8 11 18 14 17 6 72 37 82 47
3 3 17 11 33 19 15 8 27 18 27 23 0 4 6 8 14 8 7 0 27 14 44 30 18 16 36 30
42 30 13 0 300 287 300 300 0 6 14 24 30 42 17 17 30 35 30 40 0 5 9 18 20 30
11 12 20 28 20 35 0 7 5 13 10 13 6 0 10 6 10 13 0 7 9 23 20 35 11 12 20 28
20 37 0 8 5 15 10 15 6 0 10 9 10 20 0 11 5 20 10 20 6 0 10 6 10 14 0 12 14
44 51 118 5 10 9 25 9 33 0 8 5 15 10 15 6 0 10 14 10 30 0 17 5 30 10 30 6 0
10 13 10 29 0 17 5 33 10 36 6 3 10 15 10 26 0 19 -58 19 -5040 19 -4982 0
-5040 0 -5040 -19z"/>
</g>
</svg>
